<?xml version="1.0" encoding="UTF-8" standalone="no"?>
<svg
   width="26"
   height="26"
   fill="#e01b24"
   viewBox="0 0 277.33334 277.33334"
   version="1.1"
   id="svg2"
   sodipodi:docname="warning-duotone.svg"
   inkscape:version="1.3.2 (091e20ef0f, 2023-11-25, custom)"
   xmlns:inkscape="http://www.inkscape.org/namespaces/inkscape"
   xmlns:sodipodi="http://sodipodi.sourceforge.net/DTD/sodipodi-0.dtd"
   xmlns="http://www.w3.org/2000/svg"
   xmlns:svg="http://www.w3.org/2000/svg">
  <defs
     id="defs2" />
  <sodipodi:namedview
     id="namedview2"
     pagecolor="#000000"
     bordercolor="#666666"
     borderopacity="1.0"
     inkscape:showpageshadow="2"
     inkscape:pageopacity="0.0"
     inkscape:pagecheckerboard="0"
     inkscape:deskcolor="#d1d1d1"
     inkscape:zoom="22.627417"
     inkscape:cx="17.545087"
     inkscape:cy="13.722291"
     inkscape:window-width="1848"
     inkscape:window-height="1056"
     inkscape:window-x="0"
     inkscape:window-y="0"
     inkscape:window-maximized="1"
     inkscape:current-layer="svg2"
     showguides="true">
    <sodipodi:guide
       position="128,134.44689"
       orientation="-1,0"
       id="guide3"
       inkscape:locked="false"
       inkscape:label=""
       inkscape:color="rgb(0,134,229)" />
    <sodipodi:guide
       position="206.61294,50.666667"
       orientation="0,1"
       id="guide4"
       inkscape:locked="false"
       inkscape:label=""
       inkscape:color="rgb(0,134,229)" />
  </sodipodi:namedview>
  <g
     id="path2-5"
     style="fill:#f35a5a;fill-opacity:1;stroke:none;stroke-width:1.00267;stroke-dasharray:none;stroke-opacity:0.54902"
     transform="translate(10.666667,10.666667)">
    <path
       style="color:#000000;fill:#f35a5a;fill-opacity:1;stroke:#f35a5a;stroke-width:10.66666692;stroke-dasharray:none;stroke-opacity:1"
       d="m 127.66406,8.8671875 c -13.72884,-6e-7 -27.45774,6.5455705 -35.146487,19.6367185 l -0.0352,0.05859 L 5.0487781,180.4043 c -7.1719468,12.27532 -7.1776262,27.53369 -0.02344,39.8164 7.2702419,12.58416 20.8208719,20.31501 35.3554679,20.16407 l -0.166015,0.002 H 215.11523 l -0.15429,-0.002 c 14.51816,0.13892 28.04828,-7.58577 35.31445,-20.15235 7.16456,-12.27668 7.17136,-27.53504 0.01,-39.8164 L 162.8457,28.5625 162.8106,28.50391 C 155.12182,15.412754 141.3929,8.8671881 127.66406,8.8671875 Z"
       id="path5"
       sodipodi:nodetypes="sccccccccccccs" />
  </g>
  <path
     d="m 247.46667,198.75667 -87.45,-151.870003 v 0 a 24.76,24.76 0 0 0 -42.7,0 L 29.866667,198.75667 a 23.51,23.51 0 0 0 0,23.72 24.35,24.35 0 0 0 21.35,12.19 H 226.11667 a 24.35,24.35 0 0 0 21.33,-12.19 23.51,23.51 0 0 0 0.02,-23.72 z m -13.87,15.71 a 8.5,8.5 0 0 1 -7.48,4.2 H 51.216667 a 8.5,8.5 0 0 1 -7.48,-4.2 7.59,7.59 0 0 1 0,-7.72 L 131.18667,54.876667 a 8.75,8.75 0 0 1 15,0 l 87.45,151.870003 a 7.59,7.59 0 0 1 -0.04,7.72 z m -102.93,-59.8 v -40 a 8,8 0 0 1 16,0 v 40 a 8,8 0 0 1 -16,0 z m 20,36 a 12,12 0 1 1 -12,-12 12,12 0 0 1 12,12 z"
     id="path2"
     style="fill:#000000;fill-opacity:1;stroke-width:1.00267;stroke-dasharray:none" />
</svg>
