<svg width="26" height="26" viewBox="0 0 277.33334 277.33334" xmlns="http://www.w3.org/2000/svg"><path style="fill:#e56656" d="m 138.33073,14.19987 c -15.42402,0 -31.04646,7.457217 -39.746094,22.269531 l -0.0332,0.05469 -87.44141,151.855469 c -0.003,0.005 -0.0049,0.0106 -0.0078,0.0156 l -0.0078,0.0137 c -8.1226104,13.92634 -8.1266849,31.21506 -0.01953,45.14648 8.195721,14.18609 23.431334,22.90838 39.806641,22.81836 v 0.0137 H 225.7819 v -0.0137 c 16.35568,0.0822 31.56948,-8.62742 39.76563,-22.78711 8.13346,-13.93691 8.14209,-31.24823 0.0117,-45.1914 l -87.44727,-151.867195 -0.0352,-0.05859 c -8.6996,-14.812322 -24.322,-22.269534 -39.74603,-22.269535 z"/><path d="m 247.46667,198.75667 -87.45,-151.870003 v 0 a 24.76,24.76 0 0 0 -42.7,0 L 29.866667,198.75667 a 23.51,23.51 0 0 0 0,23.72 24.35,24.35 0 0 0 21.35,12.19 H 226.11667 a 24.35,24.35 0 0 0 21.33,-12.19 23.51,23.51 0 0 0 0.02,-23.72 z m -13.87,15.71 a 8.5,8.5 0 0 1 -7.48,4.2 H 51.216667 a 8.5,8.5 0 0 1 -7.48,-4.2 7.59,7.59 0 0 1 0,-7.72 L 131.18667,54.876667 a 8.75,8.75 0 0 1 15,0 l 87.45,151.870003 a 7.59,7.59 0 0 1 -0.04,7.72 z m -102.93,-59.8 v -40 a 8,8 0 0 1 16,0 v 40 a 8,8 0 0 1 -16,0 z m 20,36 a 12,12 0 1 1 -12,-12 12,12 0 0 1 12,12 z" style="fill:#000000"/></svg>
