<svg width="24" height="24" viewBox="0 0 256 256" fill="#000000" xmlns="http://www.w3.org/2000/svg"><path d="m 248.65786,211.21879 c 0,8.83656 -7.16344,15.99999 -16,15.99999 -8.83656,0 -16,-7.16343 -16,-15.99999 0,-16 16,-40 16,-40 0,0 16,24 16,40 z" style="fill:#c6c6c6"/><path style="opacity:0.3" d="m 116.27083,17.0625 -100.45833,107.75 100.875,102.41667 91.47917,-87.58334 23.625,-9.41666 z m 9.64584,79.229167 a 20.479303,19.172113 0 0 1 20.47916,19.166663 20.479303,19.172113 0 0 1 -20.47916,19.1875 20.479303,19.172113 0 0 1 -20.47917,-19.1875 20.479303,19.172113 0 0 1 20.47917,-19.166663 z"/><path style="fill:#c6c6c6" d="m 130.3676,139.95664 -0.004,74.24656 75.05424,-73.20998 20.69539,-5.94993 -13.48546,-13.61927 -65.96658,-1.4e-4 -4.36431,14.39547 z"/><path style="fill:#c6c6c6" d="m 16.271611,116.256 h 86.364709 l 7.7603,-15.37201 14.63805,-4.00532 V 25.033248 l -9.13073,-9.01197 z"/><path d="m 116.52083,8 c -2.04655,0 -4.10478,0.7724735 -5.66666,2.333333 L 70.25,51 45.645833,26.333333 c -3.125931,-3.123169 -8.189332,-3.105092 -11.3125,0.02083 -3.123167,3.125929 -3.125933,8.189331 0,11.3125 L 58.9375,62.25 15,106.16667 c -9.3718233,9.37244 -9.3718233,24.56506 0,33.9375 L 99.895833,225 c 9.372437,9.37182 24.565057,9.37182 33.937497,0 l 78.47917,-78.5 22.20833,-7.4375 c 5.63694,-1.88105 7.34375,-9.02311 3.14584,-13.22917 l -115.5,-115.499997 C 120.60478,8.7724735 118.56739,8 116.52083,8 Z m -0.4375,81.145833 c 0.0297,0.02974 -2.26735,0.536065 -5.39583,2.229167 L 81.5625,62.25 116.5,27.375 Z m 15.7917,-46.520833 65.25,65.29167 H 150.7917 c -0.91717,-3.0493 -2.35505,-5.98666 -4.35417,-8.66667 -3.73705,-5.009879 -8.82527,-8.420614 -14.45835,-10.083333 v 0 z m -61.625,30.9375 29.125,29.125 c -1.044748,1.61876 -1.460931,3.52016 -2.1875,5.27085 l -61.270863,-0.0416 z m 54.25,29.27083 c 3.37695,-0.29965 6.86173,0.6761 9.66667,3.02084 5.60956,4.68921 6.37016,13.04747 1.6875,18.66666 -4.68268,5.61921 -13.04276,6.38035 -18.66667,1.70834 -5.62419,-4.67226 -6.396,-13.01198 -1.72917,-18.64584 0,0 0.0417,-0.0525 0.0417,-0.0625 2.34997,-2.80313 5.62305,-4.38784 9,-4.6875 z m -27.354212,21.05209 c 1.656608,5.6703 5.103402,10.81851 10.145852,14.57291 2.7132,2.02015 5.66146,3.46252 8.74998,4.375 l -0.0209,73.08334 c -1.75824,-0.18459 -3.46465,-0.90304 -4.8125,-2.25 l -84.874997,-84.875 c -1.36285,-1.36375 -2.077109,-3.09488 -2.25,-4.875 z m 34.875012,80.26041 -0.0521,-61.33333 c 4.79302,-1.00814 8.09157,-4.27553 11.84375,-7.04167 3.40148,-3.40448 5.71407,-7.49978 7,-11.85416 h 62.29167 L 217.1875,128 l -11.70833,3.89583 c -1.17765,0.39454 -2.26449,1.06244 -3.14584,1.9375 M 232,160 c -2.53854,0 -5.08376,1.18397 -6.66667,3.5625 C 223.56334,166.2325 208,190.09002 208,208 c 0,13.25483 10.74518,24 24,24 13.25482,0 24,-10.74517 24,-24 0,-17.90998 -15.56334,-41.7675 -17.33333,-44.4375 C 237.08376,161.18397 234.53854,160 232,160 Z m 0,23.91667 c 4,7.75999 8,17.34334 8,24.08333 0,4.41828 -3.58172,8 -8,8 -4.41828,0 -8,-3.58172 -8,-8 0,-6.79999 4,-16.32334 8,-24.08333 z"/></svg>
